<?xml version="1.0" encoding="UTF-8" standalone="no"?>
<!-- Created with Inkscape (http://www.inkscape.org/) -->

<svg
   xmlns:dc="http://purl.org/dc/elements/1.1/"
   xmlns:cc="http://creativecommons.org/ns#"
   xmlns:rdf="http://www.w3.org/1999/02/22-rdf-syntax-ns#"
   xmlns:svg="http://www.w3.org/2000/svg"
   xmlns="http://www.w3.org/2000/svg"
   xmlns:sodipodi="http://sodipodi.sourceforge.net/DTD/sodipodi-0.dtd"
   xmlns:inkscape="http://www.inkscape.org/namespaces/inkscape"
   width="240"
   height="240"
   viewBox="0 0 240 240"
   id="svg2"
   version="1.1"
   inkscape:version="0.91 r13725"
   sodipodi:docname="image.svg">
  <defs
     id="defs4">
    <clipPath
       id="clipPath3572"
       clipPathUnits="userSpaceOnUse">
      <path
         inkscape:connector-curvature="0"
         id="path3574"
         d="m 6470.34,4072.38 0,2.06 -0.13,0 c 0,-0.64 0,-1.32 0.13,-2.06 z" />
    </clipPath>
    <radialGradient
       fx="0"
       fy="0"
       cx="0"
       cy="0"
       r="1"
       gradientUnits="userSpaceOnUse"
       gradientTransform="matrix(-0.0501329,3.54716,30.1412,0.366277,62.5635,19.6885)"
       spreadMethod="pad"
       id="radialGradient3026">
      <stop
         style="stop-opacity:1;stop-color:#797a7b"
         offset="0"
         id="stop3028" />
      <stop
         style="stop-opacity:1;stop-color:#ffffff"
         offset="1"
         id="stop3030" />
    </radialGradient>
    <clipPath
       clipPathUnits="userSpaceOnUse"
       id="clipPath3022">
      <path
         inkscape:connector-curvature="0"
         d="m 595.652,161.188 c -151.816,0 -270.617,13.609 -270.984,32.074 -0.148,19.504 134.336,36.816 300.547,39.148 10.043,0.117 19.988,0.172 29.781,0.172 152.391,0 271.406,-13.633 271.625,-32.086 0.293,-19.441 -134.258,-37.039 -300.398,-39.129 -10.313,-0.121 -20.524,-0.179 -30.571,-0.179"
         id="path3024" />
    </clipPath>
  </defs>
  <sodipodi:namedview
     id="base"
     pagecolor="#ffffff"
     bordercolor="#666666"
     borderopacity="1.0"
     inkscape:pageopacity="0.0"
     inkscape:pageshadow="2"
     inkscape:zoom="1.0625"
     inkscape:cx="120"
     inkscape:cy="120"
     inkscape:document-units="px"
     inkscape:current-layer="layer1"
     showgrid="false"
     units="px"
     inkscape:window-width="1366"
     inkscape:window-height="695"
     inkscape:window-x="0"
     inkscape:window-y="27"
     inkscape:window-maximized="1" />
  <metadata
     id="metadata7">
    <rdf:RDF>
      <cc:Work
         rdf:about="">
        <dc:format>image/svg+xml</dc:format>
        <dc:type
           rdf:resource="http://purl.org/dc/dcmitype/StillImage" />
        <dc:title></dc:title>
      </cc:Work>
    </rdf:RDF>
  </metadata>
  <g
     inkscape:label="Layer 1"
     inkscape:groupmode="layer"
     id="layer1"
     transform="translate(0,-812.36216)">
    <g
       id="g4251"
       transform="matrix(0.22371837,0,0,0.22371837,-323.63914,812.28554)">
      <path
         d="m 2402.7739,536.73315 c 0,210.34 -170.5163,380.855 -380.8538,380.855 -210.3437,0 -380.86,-170.515 -380.86,-380.855 0,-210.34375 170.5163,-380.86 380.86,-380.86 210.3375,0 380.8538,170.51625 380.8538,380.86"
         style="fill:#ffffff;fill-opacity:1;fill-rule:nonzero;stroke:none"
         id="path3404"
         inkscape:connector-curvature="0" />
      <path
         d="m 1528.0976,542.6644 c -1.5575,-134.81125 51.5813,-269.77625 158.0438,-368.39625 106.465,-98.62125 245.0937,-141.29625 379.3937,-129.45 l 3.5888,-3.32625 c -9.3475,-0.88125 -18.75,-1.53375 -28.21,-1.895 -132.7875,-5.075 -259.6075,41.86125 -357.0913,132.16375 -97.4875,90.3075 -153.9725,213.1725 -159.0512,345.9625 -0.3625,9.45625 -0.43,18.88 -0.2675,28.2725 l 3.5937,-3.33125"
         style="fill:#ffffff;fill-opacity:1;fill-rule:nonzero;stroke:none"
         id="path3406"
         inkscape:connector-curvature="0" />
      <path
         d="m 2448.4101,287.2619 2.6563,-2.465 c -18.035,-30.59 -39.4725,-59.475 -64.1888,-86.15125 -35.1487,-37.945 -75.2512,-69.64625 -118.93,-94.555 l -2.7762,2.57375 c 43.315,24.465 83.6287,55.9025 119.2012,94.30375 24.9225,26.9 46.235,55.87125 64.0375,86.29375"
         style="fill:#ffffff;fill-opacity:1;fill-rule:nonzero;stroke:none"
         id="path3408"
         inkscape:connector-curvature="0" />
      <path
         d="m 2511.9426,475.1769 c 18.9625,152.55 -33.1387,311.80625 -154.27,424.01875 -199.865,185.13875 -513.0887,173.16375 -698.2287,-26.7025 -35.5738,-38.39875 -63.8413,-81.00125 -84.9238,-126.055 l -2.7825,2.57375 c 21.5038,45.45375 50.0475,87.8575 85.1975,125.8 90.3075,97.4975 213.1713,153.9788 345.9588,159.0525 132.7912,5.0825 259.6137,-41.8525 357.0987,-132.165 97.4888,-90.30125 153.9713,-213.1675 159.0513,-345.9575 1.08,-28.2325 -0.2151,-56.19125 -3.7563,-83.66375 l -3.345,3.09875"
         style="fill:#ffffff;fill-opacity:1;fill-rule:nonzero;stroke:none"
         id="path3410"
         inkscape:connector-curvature="0" />
      <path
         d="m 1662.7901,339.8794 c 15.0988,-27.54 33.595,-53.76625 55.5825,-78.0425 148.4738,-163.94875 400.4713,-179.60625 568.0313,-37.71875 l 2.2,-2.42875 c -80.1988,-67.9925 -181.59,-102.4625 -287.1088,-97.2375 -110.1237,5.45375 -211.5337,53.46375 -285.5462,135.19125 -22.3975,24.73 -41.45,51.66375 -57.0175,80.23625 l 3.8587,0"
         style="fill:#ffffff;fill-opacity:1;fill-rule:nonzero;stroke:none"
         id="path3412"
         inkscape:connector-curvature="0" />
      <path
         d="m 1613.2651,513.12565 -3.49,0 c -0.805,14.56375 -0.8775,29.25 -0.1462,44.02 5.2262,105.5125 49.54,203.0125 125.1262,276.09625 l 2.1963,-2.43 c -88.4488,-85.63 -130.215,-202.56625 -123.6863,-317.68625"
         style="fill:#ffffff;fill-opacity:1;fill-rule:nonzero;stroke:none"
         id="path3414"
         inkscape:connector-curvature="0" />
      <path
         d="m 2384.9526,339.8794 c -4.1512,-7.64125 -8.555,-15.1575 -13.1962,-22.53625 l -2.4013,2.65 c 4.0763,6.53625 7.9313,13.1725 11.6088,19.88625 l 3.9887,0"
         style="fill:#ffffff;fill-opacity:1;fill-rule:nonzero;stroke:none"
         id="path3416"
         inkscape:connector-curvature="0" />
      <path
         d="m 2434.0126,513.12565 -3.4937,0 c 6.1237,105.81375 -28.4613,213.91875 -105.0663,298.5075 -125.5087,138.58625 -324.9812,171.17625 -484.8975,92.25125 l -2.4012,2.6525 c 62.5712,31.2175 132.4162,46.03125 204.1725,42.47625 110.125,-5.45125 211.5337,-53.465 285.5537,-135.18625 74.0088,-81.7225 111.7688,-187.3825 106.3163,-297.50625 -0.051,-1.06625 -0.125,-2.13 -0.1838,-3.195"
         style="fill:#ffffff;fill-opacity:1;fill-rule:nonzero;stroke:none"
         id="path3418"
         inkscape:connector-curvature="0" />
      <path
         d="m 2189.0201,946.98065 c 6.02,-2.51875 12.0638,-5.19625 17.9625,-7.9775 l -1.395,-2.9575 c -5.8512,2.76 -11.8525,5.425 -17.825,7.91875 l 1.2575,3.01625"
         style="fill:#ffffff;fill-opacity:1;fill-rule:nonzero;stroke:none"
         id="path3420"
         inkscape:connector-curvature="0" />
      <path
         d="m 1663.5601,800.28065 -2.6187,1.95 c 3.8962,5.23375 7.9612,10.4425 12.0737,15.47375 l 2.5338,-2.065 c -4.0838,-4.99875 -8.1138,-10.16875 -11.9888,-15.35875"
         style="fill:#ffffff;fill-opacity:1;fill-rule:nonzero;stroke:none"
         id="path3422"
         inkscape:connector-curvature="0" />
      <path
         d="m 1641.6964,768.06315 -2.785,1.71625 c 3.4125,5.535 6.9937,11.08125 10.6537,16.465 l 2.7038,-1.835 c -3.63,-5.35 -7.1863,-10.8475 -10.5725,-16.34625"
         style="fill:#ffffff;fill-opacity:1;fill-rule:nonzero;stroke:none"
         id="path3424"
         inkscape:connector-curvature="0" />
      <path
         d="m 1594.2976,661.4519 -3.1362,0.9175 c 1.8362,6.2725 3.8362,12.575 5.9425,18.7375 l 3.09,-1.055 c -2.09,-6.11875 -4.0738,-12.38 -5.8963,-18.6"
         style="fill:#ffffff;fill-opacity:1;fill-rule:nonzero;stroke:none"
         id="path3426"
         inkscape:connector-curvature="0" />
      <path
         d="m 1715.4251,858.36815 -2.2375,2.38125 c 4.7462,4.455 9.6675,8.87 14.6175,13.1275 l 2.1288,-2.47375 c -4.9163,-4.2275 -9.7988,-8.61375 -14.5088,-13.035"
         style="fill:#ffffff;fill-opacity:1;fill-rule:nonzero;stroke:none"
         id="path3428"
         inkscape:connector-curvature="0" />
      <path
         d="m 1622.7639,734.01315 -2.9288,1.46 c 2.915,5.83125 6.0025,11.6825 9.1713,17.385 l 2.855,-1.59 c -3.1463,-5.66 -6.2088,-11.465 -9.0975,-17.255"
         style="fill:#ffffff;fill-opacity:1;fill-rule:nonzero;stroke:none"
         id="path3430"
         inkscape:connector-curvature="0" />
      <path
         d="m 1606.9151,698.3669 -3.0425,1.1975 c 2.3838,6.07625 4.9325,12.17375 7.5813,18.12625 l 2.985,-1.3225 c -2.6238,-5.91375 -5.1575,-11.9675 -7.5238,-18.00125"
         style="fill:#ffffff;fill-opacity:1;fill-rule:nonzero;stroke:none"
         id="path3432"
         inkscape:connector-curvature="0" />
      <path
         d="m 2152.1151,960.4919 c 6.22,-1.9675 12.4775,-4.1 18.6,-6.3425 l -1.125,-3.0675 c -6.0762,2.225 -12.2875,4.34625 -18.4637,6.295 l 0.9887,3.115"
         style="fill:#ffffff;fill-opacity:1;fill-rule:nonzero;stroke:none"
         id="path3434"
         inkscape:connector-curvature="0" />
      <path
         d="m 2075.0338,974.25815 0.4238,3.24375 c 6.4713,-0.85125 13.0075,-1.8575 19.4263,-2.9875 l -0.5638,-3.21875 c -6.3787,1.12375 -12.8675,2.12375 -19.2863,2.9625"
         style="fill:#ffffff;fill-opacity:1;fill-rule:nonzero;stroke:none"
         id="path3436"
         inkscape:connector-curvature="0" />
      <path
         d="m 2113.4576,967.49065 0.7012,3.19375 c 6.3713,-1.415 12.7976,-2.9875 19.0901,-4.67625 l -0.8438,-3.155 c -6.2487,1.6725 -12.6237,3.2375 -18.9475,4.6375"
         style="fill:#ffffff;fill-opacity:1;fill-rule:nonzero;stroke:none"
         id="path3438"
         inkscape:connector-curvature="0" />
      <path
         d="m 1745.0064,883.78565 -2.0175,2.57375 c 5.1312,4.02875 10.4212,7.99875 15.7187,11.795 l 1.9038,-2.65875 c -5.2588,-3.765 -10.5063,-7.71125 -15.605,-11.71"
         style="fill:#ffffff;fill-opacity:1;fill-rule:nonzero;stroke:none"
         id="path3440"
         inkscape:connector-curvature="0" />
      <path
         d="m 1776.7214,906.51815 -1.785,2.73625 c 5.465,3.56625 11.085,7.05625 16.7025,10.3775 l 1.6625,-2.815 c -5.5738,-3.29875 -11.1513,-6.7575 -16.58,-10.29875"
         style="fill:#ffffff;fill-opacity:1;fill-rule:nonzero;stroke:none"
         id="path3442"
         inkscape:connector-curvature="0" />
      <path
         d="m 1857.7864,948.1544 c -4.1013,-1.59625 -8.195,-3.23875 -12.225,-4.945 l -1.2738,3.00875 c 4.6013,1.9575 9.2938,3.8225 13.9788,5.6275 l -0.48,-3.69125"
         style="fill:#ffffff;fill-opacity:1;fill-rule:nonzero;stroke:none"
         id="path3444"
         inkscape:connector-curvature="0" />
      <path
         d="m 1810.3226,926.3819 -1.5387,2.88375 c 5.765,3.07125 11.6699,6.05625 17.5625,8.86625 l 1.4062,-2.95 c -5.845,-2.79125 -11.71,-5.75375 -17.43,-8.8"
         style="fill:#ffffff;fill-opacity:1;fill-rule:nonzero;stroke:none"
         id="path3446"
         inkscape:connector-curvature="0" />
      <path
         d="m 1688.2039,830.4594 -2.4388,2.1775 c 4.3425,4.8575 8.8513,9.69125 13.4025,14.3575 l 2.3388,-2.285 c -4.5188,-4.63 -8.9938,-9.4275 -13.3026,-14.25"
         style="fill:#ffffff;fill-opacity:1;fill-rule:nonzero;stroke:none"
         id="path3448"
         inkscape:connector-curvature="0" />
      <path
         d="m 1676.6339,257.03815 -2.5263,-2.075 c -4.1462,5.05125 -8.23,10.2525 -12.1325,15.46125 l 2.6188,1.96 c 3.87,-5.1675 7.925,-10.33125 12.04,-15.34625"
         style="fill:#ffffff;fill-opacity:1;fill-rule:nonzero;stroke:none"
         id="path3450"
         inkscape:connector-curvature="0" />
      <path
         d="m 1729.0364,198.9144 c -4.9463,4.22875 -9.8713,8.63 -14.6413,13.08625 l 2.2338,2.39 c 4.735,-4.42375 9.6212,-8.795 14.53,-12.99125 l -2.1226,-2.485"
         style="fill:#ffffff;fill-opacity:1;fill-rule:nonzero;stroke:none"
         id="path3452"
         inkscape:connector-curvature="0" />
      <path
         d="m 1700.3439,225.7219 c -4.5563,4.65125 -9.0788,9.47 -13.4375,14.33 l 2.4312,2.185 c 4.3288,-4.825 8.815,-9.61125 13.3375,-14.225 l -2.3312,-2.29"
         style="fill:#ffffff;fill-opacity:1;fill-rule:nonzero;stroke:none"
         id="path3454"
         inkscape:connector-curvature="0" />
      <path
         d="m 1757.1689,176.79065 c -4.3625,3.15875 -8.7063,6.39625 -12.935,9.7 l 2.0124,2.57375 c 3.7338,-2.915 7.5588,-5.77375 11.4038,-8.58125 l -0.4812,-3.6925"
         style="fill:#ffffff;fill-opacity:1;fill-rule:nonzero;stroke:none"
         id="path3456"
         inkscape:connector-curvature="0" />
      <path
         d="m 1940.2176,102.69565 -0.5712,-3.21875 c -5.7925,1.02625 -11.6288,2.1975 -17.4013,3.4575 l 0.4263,3.25125 c 5.815,-1.27625 11.7025,-2.455 17.5462,-3.49"
         style="fill:#ffffff;fill-opacity:1;fill-rule:nonzero;stroke:none"
         id="path3458"
         inkscape:connector-curvature="0" />
      <path
         d="m 2036.3476,977.64815 0.42,3.2525 c 6.3675,-0.28625 12.8125,-0.705 19.1575,-1.2575 l -0.2838,-3.26 c -6.3899,0.56125 -12.8862,0.985 -19.2937,1.265"
         style="fill:#ffffff;fill-opacity:1;fill-rule:nonzero;stroke:none"
         id="path3460"
         inkscape:connector-curvature="0" />
      <path
         d="m 1650.5314,286.4094 c -3.6813,5.38625 -7.2925,10.92875 -10.735,16.47375 l 2.7775,1.72375 c 3.4162,-5.50375 7,-11.0075 10.6537,-16.355 l -2.6962,-1.8425"
         style="fill:#ffffff;fill-opacity:1;fill-rule:nonzero;stroke:none"
         id="path3462"
         inkscape:connector-curvature="0" />
      <path
         d="m 1629.7989,319.81815 c -3.1888,5.685 -6.3,11.525 -9.2438,17.365 l 2.9175,1.47125 c 2.9238,-5.795 6.01,-11.59 9.175,-17.23375 l -2.8487,-1.6025"
         style="fill:#ffffff;fill-opacity:1;fill-rule:nonzero;stroke:none"
         id="path3464"
         inkscape:connector-curvature="0" />
      <path
         d="m 1586.2914,429.2469 c -1.5863,6.34 -3.0488,12.80625 -4.3525,19.21875 l 3.205,0.64875 c 1.2925,-6.3625 2.745,-12.78 4.32,-19.07125 l -3.1725,-0.79625"
         style="fill:#ffffff;fill-opacity:1;fill-rule:nonzero;stroke:none"
         id="path3466"
         inkscape:connector-curvature="0" />
      <path
         d="m 1612.0826,354.94065 c -2.68,5.955 -5.2625,12.05375 -7.675,18.12125 l 3.0338,1.20625 c 2.4,-6.02125 4.9625,-12.07375 7.6237,-17.985 l -2.9825,-1.3425"
         style="fill:#ffffff;fill-opacity:1;fill-rule:nonzero;stroke:none"
         id="path3468"
         inkscape:connector-curvature="0" />
      <path
         d="m 1597.5376,391.51065 c -2.1425,6.17125 -4.1787,12.47875 -6.0425,18.74 l 3.1325,0.93375 c 1.8525,-6.21625 3.8713,-12.47625 5.9988,-18.60375 l -3.0888,-1.07"
         style="fill:#ffffff;fill-opacity:1;fill-rule:nonzero;stroke:none"
         id="path3470"
         inkscape:connector-curvature="0" />
      <path
         d="m 2443.3751,664.12065 c 1.8775,-6.27125 3.6338,-12.65875 5.2275,-18.99 l -3.1725,-0.795 c -1.575,6.28125 -3.3275,12.62375 -5.1875,18.8525 l 3.1325,0.9325"
         style="fill:#ffffff;fill-opacity:1;fill-rule:nonzero;stroke:none"
         id="path3472"
         inkscape:connector-curvature="0" />
      <path
         d="m 2420.7576,357.9819 2.9925,-1.32125 c -2.6412,-5.9575 -5.4562,-11.94125 -8.3662,-17.7875 l -2.9263,1.45625 c 2.8875,5.80375 5.6813,11.745 8.3,17.6525"
         style="fill:#ffffff;fill-opacity:1;fill-rule:nonzero;stroke:none"
         id="path3474"
         inkscape:connector-curvature="0" />
      <path
         d="m 2359.7626,258.64315 2.5363,-2.065 c -4.1213,-5.055 -8.405,-10.08375 -12.735,-14.945 l -2.4388,2.17625 c 4.2988,4.82375 8.5475,9.815 12.6375,14.83375"
         style="fill:#ffffff;fill-opacity:1;fill-rule:nonzero;stroke:none"
         id="path3476"
         inkscape:connector-curvature="0" />
      <path
         d="m 2224.5751,930.23315 c 5.7475,-3.02625 11.5188,-6.235 17.1338,-9.51875 l -1.6488,-2.8225 c -5.575,3.265 -11.2975,6.44625 -17.0087,9.45 l 1.5237,2.89125"
         style="fill:#ffffff;fill-opacity:1;fill-rule:nonzero;stroke:none"
         id="path3478"
         inkscape:connector-curvature="0" />
      <path
         d="m 2383.0076,289.89315 2.7038,-1.83125 c -3.6475,-5.3925 -7.4688,-10.7725 -11.35,-16 l -2.6263,1.95125 c 3.855,5.18875 7.6475,10.53 11.2725,15.88"
         style="fill:#ffffff;fill-opacity:1;fill-rule:nonzero;stroke:none"
         id="path3480"
         inkscape:connector-curvature="0" />
      <path
         d="m 2018.8214,95.8344 0,-3.26875 c -6.515,-0.01375 -13.1263,0.12375 -19.6525,0.4 l 0.1412,3.265 c 6.475,-0.275 13.0375,-0.40875 19.5063,-0.39625"
         style="fill:#ffffff;fill-opacity:1;fill-rule:nonzero;stroke:none"
         id="path3482"
         inkscape:connector-curvature="0" />
      <path
         d="m 1959.5001,99.71315 0.9475,-0.12625 c 6.4413,-0.84125 12.9688,-1.5475 19.4013,-2.1025 l -0.285,-3.2575 c -6.4775,0.56125 -13.0475,1.27375 -19.5438,2.12 l -0.9437,0.125 0.4237,3.24125"
         style="fill:#ffffff;fill-opacity:1;fill-rule:nonzero;stroke:none"
         id="path3484"
         inkscape:connector-curvature="0" />
      <path
         d="m 2057.7838,97.6294 0.3001,-3.255 c -6.4975,-0.58875 -13.0975,-1.0375 -19.6075,-1.3375 l -0.1513,3.2625 c 6.47,0.29875 13.0138,0.74625 19.4587,1.33"
         style="fill:#ffffff;fill-opacity:1;fill-rule:nonzero;stroke:none"
         id="path3486"
         inkscape:connector-curvature="0" />
      <path
         d="m 2171.7438,123.6369 1.1513,-3.06125 c -6.1425,-2.295 -12.395,-4.47875 -18.5925,-6.4875 l -1.01,3.10875 c 6.1538,1.9925 12.3575,4.16125 18.4512,6.44"
         style="fill:#ffffff;fill-opacity:1;fill-rule:nonzero;stroke:none"
         id="path3488"
         inkscape:connector-curvature="0" />
      <path
         d="m 2134.5664,111.5844 0.8674,-3.15375 c -6.2824,-1.73375 -12.7112,-3.35125 -19.1062,-4.81125 l -0.7225,3.18875 c 6.3388,1.445 12.72,3.055 18.9613,4.77625"
         style="fill:#ffffff;fill-opacity:1;fill-rule:nonzero;stroke:none"
         id="path3490"
         inkscape:connector-curvature="0" />
      <path
         d="m 2096.4376,102.8819 0.59,-3.21375 c -6.43,-1.16875 -12.9625,-2.20625 -19.415,-3.0825 l -0.4387,3.23875 c 6.4075,0.87125 12.89,1.90125 19.2637,3.0575"
         style="fill:#ffffff;fill-opacity:1;fill-rule:nonzero;stroke:none"
         id="path3492"
         inkscape:connector-curvature="0" />
      <path
         d="m 2403.3826,323.0619 2.8513,-1.58625 c -3.1613,-5.7 -6.485,-11.39625 -9.8825,-16.9325 l -2.79,1.71125 c 3.3725,5.495 6.6775,11.1525 9.8212,16.8075"
         style="fill:#ffffff;fill-opacity:1;fill-rule:nonzero;stroke:none"
         id="path3494"
         inkscape:connector-curvature="0" />
      <path
         d="m 2347.7851,834.2169 c 4.3575,-4.855 8.67,-9.8625 12.8125,-14.89875 l -2.5275,-2.0775 c -4.1087,4.9975 -8.3888,9.97375 -12.7238,14.79 l 2.4388,2.18625"
         style="fill:#ffffff;fill-opacity:1;fill-rule:nonzero;stroke:none"
         id="path3496"
         inkscape:connector-curvature="0" />
      <path
         d="m 2372.7451,803.8694 c 3.91,-5.20875 7.7725,-10.58 11.4575,-15.97 l -2.6925,-1.85 c -3.6675,5.35125 -7.4912,10.6875 -11.3775,15.855 l 2.6125,1.965"
         style="fill:#ffffff;fill-opacity:1;fill-rule:nonzero;stroke:none"
         id="path3498"
         inkscape:connector-curvature="0" />
      <path
         d="m 2394.9538,771.4369 c 3.4513,-5.5425 6.8163,-11.23875 10.0213,-16.92375 l -2.8512,-1.60375 c -3.1763,5.645 -6.5213,11.29875 -9.9413,16.7975 l 2.7712,1.73"
         style="fill:#ffffff;fill-opacity:1;fill-rule:nonzero;stroke:none"
         id="path3500"
         inkscape:connector-curvature="0" />
      <path
         d="m 2258.4151,910.4444 c 5.46,-3.5325 10.9275,-7.2325 16.2388,-11.0075 l -1.8876,-2.67 c -5.2837,3.75375 -10.7062,7.43 -16.125,10.9275 l 1.7738,2.75"
         style="fill:#ffffff;fill-opacity:1;fill-rule:nonzero;stroke:none"
         id="path3502"
         inkscape:connector-curvature="0" />
      <path
         d="m 2414.2364,737.15815 c 2.95,-5.82875 5.8012,-11.79875 8.495,-17.745 l -2.9838,-1.34875 c -2.6637,5.90875 -5.5013,11.8375 -8.4262,17.62375 l 2.915,1.47"
         style="fill:#ffffff;fill-opacity:1;fill-rule:nonzero;stroke:none"
         id="path3504"
         inkscape:connector-curvature="0" />
      <path
         d="m 2290.3913,887.7169 c 5.1326,-3.9975 10.2488,-8.17125 15.2176,-12.4125 l -2.1213,-2.4875 c -4.9313,4.21125 -10.0112,8.35125 -15.1025,12.3225 l 2.0063,2.5775"
         style="fill:#ffffff;fill-opacity:1;fill-rule:nonzero;stroke:none"
         id="path3506"
         inkscape:connector-curvature="0" />
      <path
         d="m 2320.2626,862.24065 c 4.7688,-4.455 9.5013,-9.06625 14.0662,-13.71125 l -2.335,-2.29 c -4.5274,4.6125 -9.2262,9.19375 -13.9637,13.605 l 2.2325,2.39625"
         style="fill:#ffffff;fill-opacity:1;fill-rule:nonzero;stroke:none"
         id="path3508"
         inkscape:connector-curvature="0" />
      <path
         d="m 2453.4713,470.0294 3.2313,-0.49625 c -0.9925,-6.4775 -2.135,-12.98875 -3.3937,-19.35625 l -3.2088,0.635 c 1.25,6.31875 2.3863,12.78375 3.3712,19.2175"
         style="fill:#ffffff;fill-opacity:1;fill-rule:nonzero;stroke:none"
         id="path3510"
         inkscape:connector-curvature="0" />
      <path
         d="m 2430.4189,701.30065 c 2.4237,-6.06375 4.7412,-12.27125 6.8912,-18.445 l -3.0875,-1.07375 c -2.1325,6.1275 -4.4337,12.28625 -6.84,18.3025 l 3.0363,1.21625"
         style="fill:#ffffff;fill-opacity:1;fill-rule:nonzero;stroke:none"
         id="path3512"
         inkscape:connector-curvature="0" />
      <path
         d="m 2434.9651,394.31315 3.0975,-1.05375 c -2.1062,-6.175 -4.3787,-12.3875 -6.75,-18.4575 l -3.0437,1.1875 c 2.3575,6.03 4.6112,12.19 6.6962,18.32375"
         style="fill:#ffffff;fill-opacity:1;fill-rule:nonzero;stroke:none"
         id="path3514"
         inkscape:connector-curvature="0" />
      <path
         d="m 2445.8913,431.7619 3.1726,-0.775 c -1.5425,-6.32625 -3.2551,-12.71625 -5.0813,-18.98375 l -3.1412,0.915 c 1.8175,6.22375 3.515,12.56125 5.0499,18.84375"
         style="fill:#ffffff;fill-opacity:1;fill-rule:nonzero;stroke:none"
         id="path3516"
         inkscape:connector-curvature="0" />
      <path
         d="m 2460.9538,508.60565 c -0.4137,-6.4775 -0.9887,-13.065 -1.7012,-19.58 l -3.2462,0.355 c 0.7037,6.46625 1.2687,13.0075 1.6887,19.4375 l 3.2587,-0.2125"
         style="fill:#ffffff;fill-opacity:1;fill-rule:nonzero;stroke:none"
         id="path3518"
         inkscape:connector-curvature="0" />
      <path
         d="m 2452.9701,625.9194 c 1.3063,-6.39 2.4863,-12.89625 3.505,-19.34125 l -3.2275,-0.5125 c -1.0112,6.39625 -2.1812,12.8575 -3.4762,19.20125 l 3.1987,0.6525"
         style="fill:#ffffff;fill-opacity:1;fill-rule:nonzero;stroke:none"
         id="path3520"
         inkscape:connector-curvature="0" />
      <path
         d="m 2459.1089,587.10065 c 0.7337,-6.47875 1.3275,-13.06625 1.77,-19.5775 l -3.2638,-0.2175 c -0.44,6.46125 -1.0225,12.99375 -1.7537,19.43 l 3.2474,0.365"
         style="fill:#ffffff;fill-opacity:1;fill-rule:nonzero;stroke:none"
         id="path3522"
         inkscape:connector-curvature="0" />
      <path
         d="m 2461.7764,547.8869 c 0.1512,-6.52125 0.1587,-13.135 0.025,-19.65 l -3.2688,0.0688 c 0.1325,6.4675 0.1225,13.03 -0.025,19.50875 l 3.2688,0.0725"
         style="fill:#ffffff;fill-opacity:1;fill-rule:nonzero;stroke:none"
         id="path3524"
         inkscape:connector-curvature="0" />
      <path
         d="m 2459.9938,344.9894 c 0,10.66375 -8.6449,19.3075 -19.3099,19.3075 -10.665,0 -19.3113,-8.64375 -19.3113,-19.3075 0,-10.665 8.6463,-19.3125 19.3113,-19.3125 10.665,0 19.3099,8.6475 19.3099,19.3125"
         style="fill:#ffffff;fill-opacity:1;fill-rule:nonzero;stroke:none"
         id="path3526"
         inkscape:connector-curvature="0" />
      <path
         d="m 2457.4501,344.56815 c 0.1825,7.5625 -4.6625,14.07375 -11.4937,16.33125 -1.5275,0.50875 -3.1625,0.80125 -4.8576,0.84125 -9.2562,0.225 -16.9437,-7.09 -17.1725,-16.35 -0.1837,-7.555 4.665,-14.07 11.495,-16.33125 1.5263,-0.505 3.1575,-0.79625 4.8551,-0.8375 9.2574,-0.22875 16.9449,7.09125 17.1737,16.34625 z m 28.405,-9.12625 c -1.3575,-6.44125 -4.0425,-12.3875 -7.7638,-17.51875 l 5.5088,-5.785 -12.2075,-11.62375 -5.5113,5.78375 c -5.3125,-3.46625 -11.3812,-5.865 -17.885,-6.8975 l -0.195,-7.98375 -16.8449,0.4025 0.1987,7.99125 c -1.6987,0.35375 -3.3588,0.80375 -4.975,1.3425 -4.5412,1.49625 -8.7675,3.685 -12.5537,6.425 l -5.7913,-5.50625 -11.6212,12.20625 5.7862,5.51125 c -3.4725,5.30875 -5.8588,11.37 -6.895,17.87375 l -7.9937,0.195 0.4137,16.85875 7.9925,-0.2025 c 1.3538,6.455 4.0425,12.39875 7.7638,17.52625 l -5.5075,5.79125 12.1987,11.6275 5.5163,-5.78375 c 5.3112,3.45625 11.3762,5.85375 17.8837,6.88375 l 0.1925,8.00125 16.8563,-0.41625 -0.195,-7.99125 c 1.6937,-0.35375 3.35,-0.8075 4.9675,-1.335 4.5412,-1.50875 8.7712,-3.68125 12.5575,-6.43 l 5.785,5.51125 11.6187,-12.20625 -5.7825,-5.5125 c 3.465,-5.31875 5.8575,-11.38 6.8975,-17.8875 l 7.985,-0.19125 -0.4112,-16.85125 -7.9888,0.19125"
         style="fill:#f14a2d;fill-opacity:1;fill-rule:nonzero;stroke:none"
         id="path3528"
         inkscape:connector-curvature="0" />
      <path
         d="m 2435.6188,353.76565 -5.0675,-8.78 5.0675,-8.77625 10.1313,0 5.0687,8.77625 -5.0687,8.78 -10.1313,0"
         style="fill:#191c1d;fill-opacity:1;fill-rule:nonzero;stroke:none"
         id="path3530"
         inkscape:connector-curvature="0" />
      <path
         d="m 1448.7764,236.1644 0,0.27 0.019,0 0,3.01125 0,3.64 -0.015,0 0,0.89625 0.015,0 0,9.03125 -0.011,0 0,0.81875 0.011,0 0,4.16875 -0.011,0 0,1.09125 0.011,0 -0.011,3.025 0,0.46875 290.3725,0 0,-26.42125 -290.3725,0"
         style="fill:#facf11;fill-opacity:1;fill-rule:evenodd;stroke:none"
         id="path3532"
         inkscape:connector-curvature="0" />
      <path
         d="m 1450.9239,260.4494 286.085,0 0,-22.14875 -286.075,0 -0.01,22.14875 z m 290.3612,4.27625 -294.6487,0 0,-30.7 294.6487,0 0,30.7"
         style="fill:#facf11;fill-opacity:1;fill-rule:nonzero;stroke:none"
         id="path3534"
         inkscape:connector-curvature="0" />
      <path
         d="m 1702.1326,262.58565 37.0161,0 0,-26.42137 -37.0161,0 0,26.42137 z"
         style="fill:#ffffff;fill-opacity:1;fill-rule:evenodd;stroke:none"
         id="path3536"
         inkscape:connector-curvature="0" />
      <path
         d="m 1704.2726,260.4494 32.7363,0 0,-22.14875 -32.7363,0 0,22.14875 z m 37.0125,4.27625 -41.2875,0 0,-30.7 41.2875,0 0,30.7"
         style="fill:#facf11;fill-opacity:1;fill-rule:nonzero;stroke:none"
         id="path3538"
         inkscape:connector-curvature="0" />
      <path
         d="m 1558.5801,253.78815 38.2613,0 0,-8.92529 -38.2613,0 0,8.92529 z"
         style="fill:#ffffff;fill-opacity:1;fill-rule:evenodd;stroke:none"
         id="path3540"
         inkscape:connector-curvature="0" />
      <path
         d="m 1512.8551,253.78815 38.2579,0 0,-8.92529 -38.2579,0 0,8.92529 z"
         style="fill:#ffffff;fill-opacity:1;fill-rule:evenodd;stroke:none"
         id="path3542"
         inkscape:connector-curvature="0" />
      <path
         d="m 1467.1289,253.78815 38.2548,0 0,-8.92529 -38.2548,0 0,8.92529 z"
         style="fill:#ffffff;fill-opacity:1;fill-rule:evenodd;stroke:none"
         id="path3544"
         inkscape:connector-curvature="0" />
      <path
         d="m 1446.8051,477.2469 226.2088,0 0,-145.25 -226.2088,0 0,145.25 z"
         style="fill:#ffffff;fill-opacity:1;fill-rule:nonzero;stroke:none"
         id="path3546"
         inkscape:connector-curvature="0" />
      <path
         d="m 1454.9539,451.7194 209.6712,0 0,-110.99513 -209.6712,0 0,110.99513 z"
         style="fill:#f14a2d;fill-opacity:1;fill-rule:nonzero;stroke:none"
         id="path3548"
         inkscape:connector-curvature="0" />
      <path
         d="m 1454.9539,470.81315 209.6712,0 0,-9.66114 -209.6712,0 0,9.66114 z"
         style="fill:#191c1d;fill-opacity:1;fill-rule:nonzero;stroke:none"
         id="path3550"
         inkscape:connector-curvature="0" />
      <path
         d="m 1559.9939,368.58065 c -16.4413,0 -29.8213,13.37625 -29.8213,29.82125 0,16.44125 13.38,29.82125 29.8213,29.82125 16.4475,0 29.83,-13.38 29.83,-29.82125 0,-16.445 -13.3825,-29.82125 -29.83,-29.82125 z m 0,61.5325 c -17.4838,0 -31.71,-14.22875 -31.71,-31.71125 0,-17.48625 14.2262,-31.71125 31.71,-31.71125 17.49,0 31.7175,14.225 31.7175,31.71125 0,17.4825 -14.2275,31.71125 -31.7175,31.71125"
         style="fill:#ffffff;fill-opacity:1;fill-rule:nonzero;stroke:none"
         id="path3552"
         inkscape:connector-curvature="0" />
      <path
         d="m 1581.8739,398.4019 -16.715,9.65 -16.7188,9.655 0,-38.60625 16.7188,9.65125 16.715,9.65"
         style="fill:#ffffff;fill-opacity:1;fill-rule:nonzero;stroke:none"
         id="path3554"
         inkscape:connector-curvature="0" />
      <path
         d="m 1581.8739,398.4019 -16.715,9.65 -16.7188,9.655 0,-38.60625 16.7188,9.65125 16.715,9.65 z"
         style="fill:none;stroke:#ffffff;stroke-width:1.25;stroke-linecap:butt;stroke-linejoin:miter;stroke-miterlimit:10;stroke-dasharray:none;stroke-opacity:1"
         id="path3556"
         inkscape:connector-curvature="0" />
      <path
         d="m 1503.3426,465.98065 c 0,2.6675 -2.1662,4.8325 -4.8337,4.8325 l -16.4663,0 c -2.6712,0 -4.8362,-2.165 -4.8362,-4.8325 l 0,0 c 0,-2.66375 2.1649,-4.82875 4.8362,-4.82875 l 16.4663,0 c 2.6675,0 4.8337,2.165 4.8337,4.82875 l 0,0"
         style="fill:#ffffff;fill-opacity:1;fill-rule:nonzero;stroke:none"
         id="path3558"
         inkscape:connector-curvature="0" />
      <path
         d="m 1598.2401,794.7369 c 0,0 -5.2625,9.79875 32.0975,17.9575 l 782.1975,0 c 0,0 26.17,-1.675 33.06,-14.01375 l 0.045,-6.755 -847.4,2.81125"
         style="fill:#aeaeac;fill-opacity:1;fill-rule:nonzero;stroke:none"
         id="path3560"
         inkscape:connector-curvature="0" />
      <path
         d="m 1598.4214,774.96315 847.4912,0 0,21.75875 c 0,0 1.2775,2.9175 -8.7025,2.18625 l -830.81,0 c 0,0 -7.8062,2.19125 -8.5325,-2.90375 l 0.5538,-21.04125"
         style="fill:#ffffff;fill-opacity:1;fill-rule:nonzero;stroke:none"
         id="path3562"
         inkscape:connector-curvature="0" />
      <path
         d="m 2406.5513,787.6819 c 0,0.83875 -0.5599,1.51625 -1.2587,1.51625 l -28.8362,0 c -0.6975,0 -1.2538,-0.6775 -1.2538,-1.51625 l 0,0 c 0,-0.8575 0.5563,-1.54625 1.2538,-1.54625 l 28.8362,0 c 0.6988,0 1.2587,0.68875 1.2587,1.54625 l 0,0"
         style="fill:#aeaeac;fill-opacity:1;fill-rule:nonzero;stroke:none"
         id="path3564"
         inkscape:connector-curvature="0" />
      <path
         d="m 1964.6039,775.13315 c 0,0 -3.2675,10.9 7.6187,11.9825 l 98.3188,0 c 0,0 10.4562,1.3575 9.065,-11.6075 l -115.0025,-0.375"
         style="fill:#aeaeac;fill-opacity:1;fill-rule:nonzero;stroke:none"
         id="path3566"
         inkscape:connector-curvature="0" />
      <g
         transform="matrix(0.125,0,0,-0.125,1270.3051,1284.7844)"
         id="g3568">
        <g
           id="g3570"
           clip-path="url(#clipPath3572)">
          <path
             d="m 6470.21,4072.38 0.1289,0 0,0 -0.1289,0 z"
             style="fill:#586264;fill-opacity:1;fill-rule:nonzero;stroke:none"
             id="path3576"
             inkscape:connector-curvature="0" />
          <path
             d="m 6470.21,4072.38 0.1289,0 0,0.207 -0.1289,0 0,-0.207 z"
             style="fill:#586264;fill-opacity:1;fill-rule:nonzero;stroke:none"
             id="path3578"
             inkscape:connector-curvature="0" />
          <path
             d="m 6470.21,4072.59 0.1289,0 0,0.207 -0.1289,0 0,-0.207 z"
             style="fill:#5a6364;fill-opacity:1;fill-rule:nonzero;stroke:none"
             id="path3580"
             inkscape:connector-curvature="0" />
          <path
             d="m 6470.21,4072.79 0.1289,0 0,0.207 -0.1289,0 0,-0.207 z"
             style="fill:#5b6466;fill-opacity:1;fill-rule:nonzero;stroke:none"
             id="path3582"
             inkscape:connector-curvature="0" />
          <path
             d="m 6470.21,4073 0.1289,0 0,0.2031 -0.1289,0 0,-0.2031 z"
             style="fill:#5d6466;fill-opacity:1;fill-rule:nonzero;stroke:none"
             id="path3584"
             inkscape:connector-curvature="0" />
          <path
             d="m 6470.21,4073.2 0.1289,0 0,0.207 -0.1289,0 0,-0.207 z"
             style="fill:#5f6568;fill-opacity:1;fill-rule:nonzero;stroke:none"
             id="path3586"
             inkscape:connector-curvature="0" />
          <path
             d="m 6470.21,4073.41 0.1289,0 0,0.207 -0.1289,0 0,-0.207 z"
             style="fill:#676d6f;fill-opacity:1;fill-rule:nonzero;stroke:none"
             id="path3588"
             inkscape:connector-curvature="0" />
          <path
             d="m 6470.21,4073.62 0.1289,0 0,0.207 -0.1289,0 0,-0.207 z"
             style="fill:#7e8284;fill-opacity:1;fill-rule:nonzero;stroke:none"
             id="path3590"
             inkscape:connector-curvature="0" />
          <path
             d="m 6470.21,4073.82 0.1289,0 0,0.2031 -0.1289,0 0,-0.2031 z"
             style="fill:#8f9394;fill-opacity:1;fill-rule:nonzero;stroke:none"
             id="path3592"
             inkscape:connector-curvature="0" />
          <path
             d="m 6470.21,4074.03 0.1289,0 0,0.207 -0.1289,0 0,-0.207 z"
             style="fill:#969a9a;fill-opacity:1;fill-rule:nonzero;stroke:none"
             id="path3594"
             inkscape:connector-curvature="0" />
          <path
             d="m 6470.21,4074.23 0.1289,0 0,0.207 -0.1289,0 0,-0.207 z"
             style="fill:#969a9a;fill-opacity:1;fill-rule:nonzero;stroke:none"
             id="path3596"
             inkscape:connector-curvature="0" />
          <path
             d="m 6470.21,4074.44 0.1289,0 0,0 -0.1289,0 z"
             style="fill:#969a9a;fill-opacity:1;fill-rule:nonzero;stroke:none"
             id="path3598"
             inkscape:connector-curvature="0" />
        </g>
      </g>
      <path
         d="m 2362.5851,774.86565 0,-386.28125 c 0,-17.53875 -14.3375,-31.8775 -31.865,-31.8775 l -617.59,0 c -17.53,0 -31.8725,14.33875 -31.8725,31.8775 l 0,386.28125 681.3275,0"
         style="fill:#191c1d;fill-opacity:1;fill-rule:nonzero;stroke:none"
         id="path3600"
         inkscape:connector-curvature="0" />
      <path
         d="m 1703.1701,751.1569 637.4988,0 0,-370.53625 -637.4988,0 0,370.53625 z"
         style="fill:#ffffff;fill-opacity:1;fill-rule:nonzero;stroke:none"
         id="path3602"
         inkscape:connector-curvature="0" />
      <path
         d="m 1969.0788,895.18565 542.5713,0 0,-49.32525 -542.5713,0 0,49.32525 z"
         style="fill:#facf11;fill-opacity:1;fill-rule:nonzero;stroke:none"
         id="path3604"
         inkscape:connector-curvature="0" />
      <path
         d="m 2466.4351,870.5219 c 0,-6.80875 5.525,-12.33125 12.3325,-12.33125 6.81,0 12.33,5.5225 12.33,12.33125 0,6.81 -5.52,12.3325 -12.33,12.3325 -6.8075,0 -12.3325,-5.5225 -12.3325,-12.3325"
         style="fill:#ffffff;fill-opacity:1;fill-rule:nonzero;stroke:none"
         id="path3606"
         inkscape:connector-curvature="0" />
      <path
         d="m 2230.8176,875.9494 5.9048,0 0,-25.24125 -5.9048,0 0,25.24125 z"
         style="fill:#ffffff;fill-opacity:1;fill-rule:nonzero;stroke:none"
         id="path3608"
         inkscape:connector-curvature="0" />
      <path
         d="m 2249.7076,865.0644 5.8975,0 0,-14.356 -5.8975,0 0,14.356 z"
         style="fill:#ffffff;fill-opacity:1;fill-rule:nonzero;stroke:none"
         id="path3610"
         inkscape:connector-curvature="0" />
      <path
         d="m 2268.5976,865.0644 5.8975,0 0,-14.356 -5.8975,0 0,14.356 z"
         style="fill:#ffffff;fill-opacity:1;fill-rule:nonzero;stroke:none"
         id="path3612"
         inkscape:connector-curvature="0" />
      <path
         d="m 2287.4826,865.0644 5.9009,0 0,-14.356 -5.9009,0 0,14.356 z"
         style="fill:#ffffff;fill-opacity:1;fill-rule:nonzero;stroke:none"
         id="path3614"
         inkscape:connector-curvature="0" />
      <path
         d="m 2305.2289,875.9494 0.01,-25.24125 5.8975,0 0,25.24125 -5.905,0"
         style="fill:#ffffff;fill-opacity:1;fill-rule:nonzero;stroke:none"
         id="path3616"
         inkscape:connector-curvature="0" />
      <path
         d="m 2324.1264,865.0644 5.8964,0 0,-14.356 -5.8964,0 0,14.356 z"
         style="fill:#ffffff;fill-opacity:1;fill-rule:nonzero;stroke:none"
         id="path3618"
         inkscape:connector-curvature="0" />
      <path
         d="m 2343.0076,865.0644 5.9048,0 0,-14.356 -5.9048,0 0,14.356 z"
         style="fill:#ffffff;fill-opacity:1;fill-rule:nonzero;stroke:none"
         id="path3620"
         inkscape:connector-curvature="0" />
      <path
         d="m 2361.8976,865.0644 5.896,0 0,-14.356 -5.896,0 0,14.356 z"
         style="fill:#ffffff;fill-opacity:1;fill-rule:nonzero;stroke:none"
         id="path3622"
         inkscape:connector-curvature="0" />
      <path
         d="m 2379.6514,875.9469 5.8964,0 0,-25.23875 -5.8964,0 0,25.23875 z"
         style="fill:#ffffff;fill-opacity:1;fill-rule:nonzero;stroke:none"
         id="path3624"
         inkscape:connector-curvature="0" />
      <path
         d="m 2398.5414,865.0644 5.8989,0 0,-14.356 -5.8989,0 0,14.356 z"
         style="fill:#ffffff;fill-opacity:1;fill-rule:nonzero;stroke:none"
         id="path3626"
         inkscape:connector-curvature="0" />
      <path
         d="m 2417.4263,865.0644 5.8985,0 0,-14.356 -5.8985,0 0,14.356 z"
         style="fill:#ffffff;fill-opacity:1;fill-rule:nonzero;stroke:none"
         id="path3628"
         inkscape:connector-curvature="0" />
      <path
         d="m 2436.3189,865.0644 5.895,0 0,-14.356 -5.895,0 0,14.356 z"
         style="fill:#ffffff;fill-opacity:1;fill-rule:nonzero;stroke:none"
         id="path3630"
         inkscape:connector-curvature="0" />
      <path
         d="m 2006.0601,875.9494 5.8975,0 0,-25.24125 -5.8975,0 0,25.24125 z"
         style="fill:#ffffff;fill-opacity:1;fill-rule:nonzero;stroke:none"
         id="path3632"
         inkscape:connector-curvature="0" />
      <path
         d="m 2024.9426,865.0644 5.8984,0 0,-14.356 -5.8984,0 0,14.356 z"
         style="fill:#ffffff;fill-opacity:1;fill-rule:nonzero;stroke:none"
         id="path3634"
         inkscape:connector-curvature="0" />
      <path
         d="m 2043.8339,865.0644 5.895,0 0,-14.356 -5.895,0 0,14.356 z"
         style="fill:#ffffff;fill-opacity:1;fill-rule:nonzero;stroke:none"
         id="path3636"
         inkscape:connector-curvature="0" />
      <path
         d="m 2062.7189,865.0644 5.8984,0 0,-14.356 -5.8984,0 0,14.356 z"
         style="fill:#ffffff;fill-opacity:1;fill-rule:nonzero;stroke:none"
         id="path3638"
         inkscape:connector-curvature="0" />
      <path
         d="m 2080.4713,875.9494 5.8975,0 0,-25.24125 -5.8975,0 0,25.24125 z"
         style="fill:#ffffff;fill-opacity:1;fill-rule:nonzero;stroke:none"
         id="path3640"
         inkscape:connector-curvature="0" />
      <path
         d="m 2099.3614,865.0644 5.8964,0 0,-14.356 -5.8964,0 0,14.356 z"
         style="fill:#ffffff;fill-opacity:1;fill-rule:nonzero;stroke:none"
         id="path3642"
         inkscape:connector-curvature="0" />
      <path
         d="m 2118.2451,865.0644 5.9024,0 0,-14.356 -5.9024,0 0,14.356 z"
         style="fill:#ffffff;fill-opacity:1;fill-rule:nonzero;stroke:none"
         id="path3644"
         inkscape:connector-curvature="0" />
      <path
         d="m 2137.1326,865.0644 5.8975,0 0,-14.356 -5.8975,0 0,14.356 z"
         style="fill:#ffffff;fill-opacity:1;fill-rule:nonzero;stroke:none"
         id="path3646"
         inkscape:connector-curvature="0" />
      <path
         d="m 2154.8826,875.9494 5.8999,0 0,-25.24125 -5.8999,0 0,25.24125 z"
         style="fill:#ffffff;fill-opacity:1;fill-rule:nonzero;stroke:none"
         id="path3648"
         inkscape:connector-curvature="0" />
      <path
         d="m 2173.7751,865.0644 5.8936,0 0,-14.356 -5.8936,0 0,14.356 z"
         style="fill:#ffffff;fill-opacity:1;fill-rule:nonzero;stroke:none"
         id="path3650"
         inkscape:connector-curvature="0" />
      <path
         d="m 2192.6601,865.0644 5.8989,0 0,-14.356 -5.8989,0 0,14.356 z"
         style="fill:#ffffff;fill-opacity:1;fill-rule:nonzero;stroke:none"
         id="path3652"
         inkscape:connector-curvature="0" />
      <path
         d="m 2211.5426,865.0644 5.9038,0 0,-14.356 -5.9038,0 0,14.356 z"
         style="fill:#ffffff;fill-opacity:1;fill-rule:nonzero;stroke:none"
         id="path3654"
         inkscape:connector-curvature="0" />
      <path
         d="m 1771.6051,964.0769 c 0,0.72875 -0.5562,1.3275 -1.2387,1.3275 l -19.2988,0 c -0.6812,0 -1.235,-0.59875 -1.235,-1.3275 l 0,-37.95625 c 0,-0.73125 0.5538,-1.3275 1.235,-1.3275 l 19.2988,0 c 0.6825,0 1.2387,0.59625 1.2387,1.3275 l 0,37.95625"
         style="fill:#f14a2d;fill-opacity:1;fill-rule:nonzero;stroke:none"
         id="path3656"
         inkscape:connector-curvature="0" />
      <path
         d="m 1777.3601,924.79315 -6.9637,0 0,40.61125 6.9637,0 c 0.68,0 1.2275,-0.59875 1.2275,-1.3275 l 0,-37.95625 c 0,-0.73125 -0.5475,-1.3275 -1.2275,-1.3275"
         style="fill:#ffffff;fill-opacity:1;fill-rule:nonzero;stroke:none"
         id="path3658"
         inkscape:connector-curvature="0" />
      <path
         d="m 2082.0326,924.7869 -15.3937,0 -202.4463,0.006 -86.2212,0 0,40.61125 86.2212,0 202.4463,-0.004 82.4199,0 0,-40.61375 -67.03,0"
         style="fill:#facf11;fill-opacity:1;fill-rule:nonzero;stroke:none"
         id="path3660"
         inkscape:connector-curvature="0" />
      <path
         d="m 2082.0326,939.6469 -15.3937,0 -202.4463,0.001 -86.2212,0 0,10.895 86.2212,0 202.4463,-0.004 82.4237,0 0,-10.8925 -67.03,0"
         style="fill:#191c1d;fill-opacity:1;fill-rule:nonzero;stroke:none"
         id="path3662"
         inkscape:connector-curvature="0" />
      <path
         d="m 2148.8814,965.5119 -10.4,-20.415 10.395,-20.425 47.5549,20.425 -47.5499,20.415"
         style="fill:#ffffff;fill-opacity:1;fill-rule:nonzero;stroke:none"
         id="path3664"
         inkscape:connector-curvature="0" />
      <path
         d="m 2176.5976,936.57815 0,17.03 19.8337,-8.51125 -19.8337,-8.51875"
         style="fill:#191c1d;fill-opacity:1;fill-rule:nonzero;stroke:none"
         id="path3666"
         inkscape:connector-curvature="0" />
      <path
         d="m 1836.5201,721.0094 370.795,0 0,-497.02375 -370.795,0 0,497.02375 z"
         style="fill:#191c1d;fill-opacity:1;fill-rule:nonzero;stroke:none"
         id="path3668"
         inkscape:connector-curvature="0" />
      <path
         d="m 1836.5201,288.44565 370.795,0 0,-42.14113 -370.795,0 0,42.14113 z"
         style="fill:#ffffff;fill-opacity:1;fill-rule:nonzero;stroke:none"
         id="path3670"
         inkscape:connector-curvature="0" />
      <path
         d="m 1836.5201,260.8319 370.795,0 0,-36.84625 -370.795,0 0,36.84625 z"
         style="fill:#191c1d;fill-opacity:1;fill-rule:nonzero;stroke:none"
         id="path3672"
         inkscape:connector-curvature="0" />
      <path
         d="m 1869.5251,354.7519 140.565,0 0,-8.71485 -140.565,0 0,8.71485 z"
         style="fill:#ffffff;fill-opacity:1;fill-rule:nonzero;stroke:none"
         id="path3674"
         inkscape:connector-curvature="0" />
      <path
         d="m 1930.1476,382.6669 14.3833,0 0,-8.71729 -14.3833,0 0,8.71729 z"
         style="fill:#ffffff;fill-opacity:1;fill-rule:nonzero;stroke:none"
         id="path3676"
         inkscape:connector-curvature="0" />
      <path
         d="m 1956.7351,382.6669 14.3837,0 0,-8.71729 -14.3837,0 0,8.71729 z"
         style="fill:#ffffff;fill-opacity:1;fill-rule:nonzero;stroke:none"
         id="path3678"
         inkscape:connector-curvature="0" />
      <path
         d="m 1984.0114,382.6669 14.3847,0 0,-8.71729 -14.3847,0 0,8.71729 z"
         style="fill:#ffffff;fill-opacity:1;fill-rule:nonzero;stroke:none"
         id="path3680"
         inkscape:connector-curvature="0" />
      <path
         d="m 1896.1964,410.58065 113.894,0 0,-8.71875 -113.894,0 0,8.71875 z"
         style="fill:#facf11;fill-opacity:1;fill-rule:nonzero;stroke:none"
         id="path3682"
         inkscape:connector-curvature="0" />
      <path
         d="m 1930.1476,438.4944 79.9424,0 0,-8.72119 -79.9424,0 0,8.72119 z"
         style="fill:#ffffff;fill-opacity:1;fill-rule:nonzero;stroke:none"
         id="path3684"
         inkscape:connector-curvature="0" />
      <path
         d="m 2029.2414,438.4944 140.5687,0 0,-8.72119 -140.5687,0 0,8.72119 z"
         style="fill:#f14a2d;fill-opacity:1;fill-rule:nonzero;stroke:none"
         id="path3686"
         inkscape:connector-curvature="0" />
      <path
         d="m 2029.2414,410.58065 44.6313,0 0,-8.71875 -44.6313,0 0,8.71875 z"
         style="fill:#ffffff;fill-opacity:1;fill-rule:nonzero;stroke:none"
         id="path3688"
         inkscape:connector-curvature="0" />
      <path
         d="m 2110.7826,410.58065 44.6324,0 0,-8.71875 -44.6324,0 0,8.71875 z"
         style="fill:#ffffff;fill-opacity:1;fill-rule:nonzero;stroke:none"
         id="path3690"
         inkscape:connector-curvature="0" />
      <path
         d="m 2029.2414,382.6669 79.9438,0 0,-8.71729 -79.9438,0 0,8.71729 z"
         style="fill:#ffffff;fill-opacity:1;fill-rule:nonzero;stroke:none"
         id="path3692"
         inkscape:connector-curvature="0" />
      <path
         d="m 1925.7189,247.5719 79.9453,0 0,-8.71778 -79.9453,0 0,8.71778 z"
         style="fill:#ffffff;fill-opacity:1;fill-rule:nonzero;stroke:none"
         id="path3694"
         inkscape:connector-curvature="0" />
      <path
         d="m 2024.8114,247.5719 79.9472,0 0,-8.71778 -79.9472,0 0,8.71778 z"
         style="fill:#ffffff;fill-opacity:1;fill-rule:nonzero;stroke:none"
         id="path3696"
         inkscape:connector-curvature="0" />
      <path
         d="m 1925.7189,279.9719 79.9453,0 0,-8.71875 -79.9453,0 0,8.71875 z"
         style="fill:#191c1d;fill-opacity:1;fill-rule:nonzero;stroke:none"
         id="path3698"
         inkscape:connector-curvature="0" />
      <path
         d="m 1869.5251,475.3619 72.3223,0 0,-8.71875 -72.3223,0 0,8.71875 z"
         style="fill:#ffffff;fill-opacity:1;fill-rule:nonzero;stroke:none"
         id="path3700"
         inkscape:connector-curvature="0" />
      <path
         d="m 1918.5326,503.2769 28.2788,0 0,-8.71778 -28.2788,0 0,8.71778 z"
         style="fill:#ffffff;fill-opacity:1;fill-rule:nonzero;stroke:none"
         id="path3702"
         inkscape:connector-curvature="0" />
      <path
         d="m 1895.5701,531.1869 27.81,0 0,-8.71485 -27.81,0 0,8.71485 z"
         style="fill:#facf11;fill-opacity:1;fill-rule:nonzero;stroke:none"
         id="path3704"
         inkscape:connector-curvature="0" />
      <path
         d="m 1900.7164,559.1019 41.1313,0 0,-8.71875 -41.1313,0 0,8.71875 z"
         style="fill:#ffffff;fill-opacity:1;fill-rule:nonzero;stroke:none"
         id="path3706"
         inkscape:connector-curvature="0" />
      <path
         d="m 1951.6989,559.1019 72.3266,0 0,-8.71875 -72.3266,0 0,8.71875 z"
         style="fill:#ffffff;fill-opacity:1;fill-rule:nonzero;stroke:none"
         id="path3708"
         inkscape:connector-curvature="0" />
      <path
         d="m 1951.6989,531.1869 41.1328,0 0,-8.71485 -41.1328,0 0,8.71485 z"
         style="fill:#facf11;fill-opacity:1;fill-rule:nonzero;stroke:none"
         id="path3710"
         inkscape:connector-curvature="0" />
      <path
         d="m 1963.8476,503.2769 41.1324,0 0,-8.71778 -41.1324,0 0,8.71778 z"
         style="fill:#ffffff;fill-opacity:1;fill-rule:nonzero;stroke:none"
         id="path3712"
         inkscape:connector-curvature="0" />
      <path
         d="m 2074.6151,559.1019 72.3238,0 0,-8.71875 -72.3238,0 0,8.71875 z"
         style="fill:#ffffff;fill-opacity:1;fill-rule:nonzero;stroke:none"
         id="path3714"
         inkscape:connector-curvature="0" />
      <path
         d="m 2074.6151,531.1894 41.1289,0 0,-8.71729 -41.1289,0 0,8.71729 z"
         style="fill:#ffffff;fill-opacity:1;fill-rule:nonzero;stroke:none"
         id="path3716"
         inkscape:connector-curvature="0" />
      <path
         d="m 2074.6151,503.2769 41.1289,0 0,-8.71778 -41.1289,0 0,8.71778 z"
         style="fill:#ffffff;fill-opacity:1;fill-rule:nonzero;stroke:none"
         id="path3718"
         inkscape:connector-curvature="0" />
      <path
         d="m 2074.6151,475.3619 41.1289,0 0,-8.71875 -41.1289,0 0,8.71875 z"
         style="fill:#ffffff;fill-opacity:1;fill-rule:nonzero;stroke:none"
         id="path3720"
         inkscape:connector-curvature="0" />
      <path
         d="m 1992.4389,475.3619 72.3222,0 0,-8.71875 -72.3222,0 0,8.71875 z"
         style="fill:#ffffff;fill-opacity:1;fill-rule:nonzero;stroke:none"
         id="path3722"
         inkscape:connector-curvature="0" />
      <path
         d="m 2023.6289,503.2769 41.1323,0 0,-8.71778 -41.1323,0 0,8.71778 z"
         style="fill:#f14a2d;fill-opacity:1;fill-rule:nonzero;stroke:none"
         id="path3724"
         inkscape:connector-curvature="0" />
      <path
         d="m 2023.6289,531.1894 41.1323,0 0,-8.71729 -41.1323,0 0,8.71729 z"
         style="fill:#ffffff;fill-opacity:1;fill-rule:nonzero;stroke:none"
         id="path3726"
         inkscape:connector-curvature="0" />
      <path
         d="m 1869.5251,595.9694 140.565,0 0,-8.71631 -140.565,0 0,8.71631 z"
         style="fill:#ffffff;fill-opacity:1;fill-rule:nonzero;stroke:none"
         id="path3728"
         inkscape:connector-curvature="0" />
      <path
         d="m 1930.1476,623.8844 79.9424,0 0,-8.72021 -79.9424,0 0,8.72021 z"
         style="fill:#ffffff;fill-opacity:1;fill-rule:nonzero;stroke:none"
         id="path3730"
         inkscape:connector-curvature="0" />
      <path
         d="m 1904.1026,651.79565 57.0801,0 0,-8.71875 -57.0801,0 0,8.71875 z"
         style="fill:#ffffff;fill-opacity:1;fill-rule:nonzero;stroke:none"
         id="path3732"
         inkscape:connector-curvature="0" />
      <path
         d="m 1930.1476,679.7069 79.9424,0 0,-8.71729 -79.9424,0 0,8.71729 z"
         style="fill:#ffffff;fill-opacity:1;fill-rule:nonzero;stroke:none"
         id="path3734"
         inkscape:connector-curvature="0" />
      <path
         d="m 2029.2414,679.7069 140.5687,0 0,-8.71729 -140.5687,0 0,8.71729 z"
         style="fill:#ffffff;fill-opacity:1;fill-rule:nonzero;stroke:none"
         id="path3736"
         inkscape:connector-curvature="0" />
      <path
         d="m 1983.6826,651.79565 79.9424,0 0,-8.71875 -79.9424,0 0,8.71875 z"
         style="fill:#ffffff;fill-opacity:1;fill-rule:nonzero;stroke:none"
         id="path3738"
         inkscape:connector-curvature="0" />
      <path
         d="m 2029.2414,623.8844 79.9438,0 0,-8.72021 -79.9438,0 0,8.72021 z"
         style="fill:#facf11;fill-opacity:1;fill-rule:nonzero;stroke:none"
         id="path3740"
         inkscape:connector-curvature="0" />
    </g>
  </g>
</svg>
